<?xml version="1.0" encoding="UTF-8" standalone="no"?>
<!-- Created with Inkscape (http://www.inkscape.org/) -->

<svg
   xmlns:dc="http://purl.org/dc/elements/1.1/"
   xmlns:cc="http://creativecommons.org/ns#"
   xmlns:rdf="http://www.w3.org/1999/02/22-rdf-syntax-ns#"
   xmlns:svg="http://www.w3.org/2000/svg"
   xmlns="http://www.w3.org/2000/svg"
   xmlns:sodipodi="http://sodipodi.sourceforge.net/DTD/sodipodi-0.dtd"
   xmlns:inkscape="http://www.inkscape.org/namespaces/inkscape"
   width="120.00001mm"
   height="108.1674mm"
   viewBox="0 0 425.19688 383.2703"
   id="svg4304"
   version="1.1"
   inkscape:version="0.91 r13725"
   sodipodi:docname="square_laser.svg">
  <defs
     id="defs4306">
    <inkscape:perspective
       id="perspective4531"
       inkscape:persp3d-origin="586.79025 : 415.71682 : 1"
       inkscape:vp_z="678.60575 : 541.75286 : 1"
       inkscape:vp_y="0 : 1000 : 0"
       inkscape:vp_x="165.66502 : 677.11331 : 1"
       sodipodi:type="inkscape:persp3d" />
  </defs>
  <sodipodi:namedview
     id="base"
     pagecolor="#ffffff"
     bordercolor="#000000"
     borderopacity="1"
     inkscape:pageopacity="0"
     inkscape:pageshadow="2"
     inkscape:zoom="0.4392"
     inkscape:cx="381.1707"
     inkscape:cy="355.92621"
     inkscape:document-units="px"
     inkscape:current-layer="g4610"
     showgrid="false"
     units="mm"
     inkscape:window-width="1280"
     inkscape:window-height="751"
     inkscape:window-x="0"
     inkscape:window-y="1"
     inkscape:window-maximized="1"
     fit-margin-top="10"
     fit-margin-left="10"
     fit-margin-right="10"
     fit-margin-bottom="10" />
  <metadata
     id="metadata4309">
    <rdf:RDF>
      <cc:Work
         rdf:about="">
        <dc:format>image/svg+xml</dc:format>
        <dc:type
           rdf:resource="http://purl.org/dc/dcmitype/StillImage" />
        <dc:title></dc:title>
      </cc:Work>
    </rdf:RDF>
  </metadata>
  <g
     inkscape:label="Layer 1"
     inkscape:groupmode="layer"
     id="layer1"
     transform="translate(-144.22954,-55.366637)">
    <text
       xml:space="preserve"
       style="font-style:normal;font-variant:normal;font-weight:bold;font-stretch:normal;font-size:40px;line-height:125%;font-family:Aharoni;-inkscape-font-specification:'Aharoni Bold';letter-spacing:0px;word-spacing:0px;fill:#000000;fill-opacity:1;stroke:none;stroke-width:1px;stroke-linecap:butt;stroke-linejoin:miter;stroke-opacity:1"
       x="2291.4148"
       y="-1715.9269"
       id="text4153"
       sodipodi:linespacing="125%"><tspan
         sodipodi:role="line"
         id="tspan4155"
         x="2291.4148"
         y="-1715.9269"
         style="font-style:normal;font-variant:normal;font-weight:bold;font-stretch:normal;font-size:625px;font-family:Aharoni;-inkscape-font-specification:'Aharoni Bold'" /></text>
    <g
       id="g4309"
       style="font-style:normal;font-weight:normal;font-size:40px;line-height:125%;font-family:sans-serif;letter-spacing:0px;word-spacing:0px;fill:#000000;fill-opacity:1;stroke:none;stroke-width:1px;stroke-linecap:butt;stroke-linejoin:miter;stroke-opacity:1"
       transform="translate(1365.7006,-2471.1462)" />
    <g
       id="g4610"
       transform="matrix(27.204712,0,0,27.204712,-6306.2629,-25116.012)">
      <g
         id="g4174"
         transform="matrix(0.08275156,0,0,0.08275156,218.13718,860.30753)">
        <g
           transform="matrix(1.7157249,0,0,1.7157249,-92.27238,99.012163)"
           style="font-style:normal;font-weight:normal;font-size:40px;line-height:125%;font-family:sans-serif;letter-spacing:0px;word-spacing:0px;fill:#32d4c8;fill-opacity:1;stroke:#171717;stroke-width:0.85697508;stroke-linecap:butt;stroke-linejoin:miter;stroke-miterlimit:4;stroke-dasharray:none;stroke-opacity:1"
           id="g4592">
          <path
             sodipodi:nodetypes="scccscccccccccccccccccccccscsccccc"
             id="path4594"
             transform="matrix(0.02259705,0,0,0.02259705,185.96758,393.03364)"
             d="m 3926.3457,722.47266 c -284.2345,0 -562.4472,125.66295 -757.4961,334.32034 -159.8213,170.7546 -235.388,397.1033 -254.2851,635.6269 -55.9892,26.905 -103.7875,68.259 -138.4649,119.7969 -183.3213,-128.3115 -401.8574,-203.2906 -625.9473,-203.291 -40.0897,0 -79.45,8.6727 -119.2773,13.2246 l 0,-545.7363 C 2030.834,883.62745 1874.5601,727.35315 1681.7734,727.3125 l -531.5605,0 c -7.2107,0.13879 -14.4153,0.50094 -21.6035,1.08594 l 0.033,-0.29883 -271.99416,-1.29102 -367.01953,342.30081 -0.98243,3194.7226 3021.14842,-1.2949 498.1641,-482.0957 c 14.1462,-11.6811 27.3499,-24.459 39.4883,-38.2148 l 3.08,-2.9805 -0.4394,-0.027 c 55.2499,-63.393 85.7669,-144.5952 85.9433,-228.6856 l 0,-717.2187 25.2383,0 c 192.7867,-0.041 349.061,-156.3149 349.1016,-349.1016 l 0,-437.6094 c -0.1534,-75.0613 -24.4909,-148.0752 -69.4043,-208.2168 44.9134,-60.1416 69.2509,-133.1555 69.4043,-208.2168 l 0,-463.539 C 4510.37,990.88188 4431.692,867.43685 4308.6387,810.11523 4189.9156,754.81996 4058.9626,722.47221 3926.3457,722.47266 Z M 1697.5898,1711.2617 c -0.1332,0.064 -0.2125,0.1961 -0.3457,0.2598 -0.1066,0.052 -0.2371,0.036 -0.3437,0.088 l 0.6894,-0.3477 z"
             style="font-style:normal;font-variant:normal;font-weight:bold;font-stretch:normal;font-size:75px;font-family:Aharoni;-inkscape-font-specification:'Aharoni Bold';fill:#32d4c8;fill-opacity:1;stroke:#171717;stroke-width:37.92420197;stroke-miterlimit:4;stroke-dasharray:none;stroke-opacity:1"
             inkscape:connector-curvature="0" />
        </g>
        <g
           transform="matrix(1.0547353,0,0,1.0547353,-17.698968,-47.354784)"
           style="font-style:normal;font-variant:normal;font-weight:bold;font-stretch:normal;font-size:65.06750488px;line-height:125%;font-family:Aharoni;-inkscape-font-specification:'Aharoni Bold';letter-spacing:0px;word-spacing:0px;fill:#ffffff;fill-opacity:1;stroke:#171717;stroke-width:1.39403081;stroke-linecap:butt;stroke-linejoin:miter;stroke-miterlimit:4;stroke-dasharray:none;stroke-opacity:1"
           id="text4596">
          <path
             d="m 338.60264,879.45643 q 0,13.93963 -9.59095,22.39873 -8.04209,7.08895 -18.34789,7.08895 -6.37411,0 -11.37808,-2.79984 -3.03812,-1.66799 -5.65925,-5.12311 l 0,6.13582 -19.53932,0 0,-89.47577 19.53932,0 0,39.61478 q 3.15727,-3.27641 6.13582,-4.70612 5.18268,-2.50199 11.08022,-2.50199 10.12709,0 17.9309,6.73154 9.82923,8.45909 9.82923,22.63701 z m -20.31374,0.0596 q 0,-4.58697 -3.03813,-8.16124 -3.75298,-4.40826 -9.59094,-4.40826 -5.24226,0 -8.93567,3.69341 -3.6934,3.63383 -3.6934,8.87609 0,5.24225 3.6934,8.93566 3.69341,3.63384 8.93567,3.63384 5.89753,0 9.59094,-4.40826 3.03813,-3.63384 3.03813,-8.16124 z"
             style="font-style:normal;font-variant:normal;font-weight:bold;font-stretch:normal;font-size:122.00157928px;font-family:Aharoni;-inkscape-font-specification:'Aharoni Bold';fill:#ffffff;stroke:#171717;stroke-width:1.39403081;stroke-miterlimit:4;stroke-dasharray:none;stroke-opacity:1"
             id="path4146"
             inkscape:connector-curvature="0" />
          <path
             d="m 384.77023,867.95921 -13.76092,0 0,39.19777 -19.53932,0 0,-39.19777 -6.96981,0 0,-16.08419 6.96981,0 0,-7.32725 q 0,-12.21207 6.1954,-18.82446 7.68467,-8.22081 18.46703,-8.22081 4.28912,0 8.63781,2.02542 l 0,17.03733 q -3.99126,-2.20413 -6.85067,-2.20413 -3.99127,0 -5.83797,3.03812 -1.07228,1.72756 -1.07228,8.51867 l 0,5.95711 13.76092,0 0,16.08419 z"
             style="font-style:normal;font-variant:normal;font-weight:bold;font-stretch:normal;font-size:122.00157928px;font-family:Aharoni;-inkscape-font-specification:'Aharoni Bold';fill:#ffffff;stroke:#171717;stroke-width:1.39403081;stroke-miterlimit:4;stroke-dasharray:none;stroke-opacity:1"
             id="path4148"
             inkscape:connector-curvature="0" />
        </g>
      </g>
      <text
         xml:space="preserve"
         style="font-style:normal;font-weight:normal;font-size:1.47033358px;line-height:125%;font-family:sans-serif;letter-spacing:0px;word-spacing:0px;fill:#000000;fill-opacity:1;stroke:none;stroke-width:1px;stroke-linecap:butt;stroke-linejoin:miter;stroke-opacity:1"
         x="265.95483"
         y="919.64056"
         id="text5761"
         sodipodi:linespacing="125%"><tspan
           sodipodi:role="line"
           id="tspan5763"
           x="265.95483"
           y="919.64056" /></text>
    </g>
  </g>
</svg>
