<?xml version="1.0" encoding="UTF-8" standalone="no"?>
<!-- Created with Inkscape (http://www.inkscape.org/) -->

<svg
   xmlns:dc="http://purl.org/dc/elements/1.1/"
   xmlns:cc="http://creativecommons.org/ns#"
   xmlns:rdf="http://www.w3.org/1999/02/22-rdf-syntax-ns#"
   xmlns:svg="http://www.w3.org/2000/svg"
   xmlns="http://www.w3.org/2000/svg"
   xmlns:sodipodi="http://sodipodi.sourceforge.net/DTD/sodipodi-0.dtd"
   xmlns:inkscape="http://www.inkscape.org/namespaces/inkscape"
   width="220mm"
   height="91.673386mm"
   viewBox="0 0 779.52754 324.82695"
   id="svg6412"
   version="1.1"
   inkscape:version="0.91 r13725"
   sodipodi:docname="bitfab_laser.svg">
  <defs
     id="defs6414">
    <inkscape:perspective
       id="perspective4531"
       inkscape:persp3d-origin="586.79021 : 415.7168 : 1"
       inkscape:vp_z="678.60571 : 541.75283 : 1"
       inkscape:vp_y="0 : 999.99995 : 0"
       inkscape:vp_x="165.66501 : 677.11328 : 1"
       sodipodi:type="inkscape:persp3d" />
  </defs>
  <sodipodi:namedview
     id="base"
     pagecolor="#ffffff"
     bordercolor="#666666"
     borderopacity="1.0"
     inkscape:pageopacity="1"
     inkscape:pageshadow="2"
     inkscape:zoom="0.70000002"
     inkscape:cx="395.83672"
     inkscape:cy="165.23801"
     inkscape:document-units="px"
     inkscape:current-layer="g4722"
     showgrid="false"
     units="mm"
     inkscape:window-width="1280"
     inkscape:window-height="751"
     inkscape:window-x="0"
     inkscape:window-y="1"
     inkscape:window-maximized="1"
     fit-margin-top="10"
     fit-margin-left="10"
     fit-margin-right="10"
     fit-margin-bottom="10" />
  <metadata
     id="metadata6417">
    <rdf:RDF>
      <cc:Work
         rdf:about="">
        <dc:format>image/svg+xml</dc:format>
        <dc:type
           rdf:resource="http://purl.org/dc/dcmitype/StillImage" />
        <dc:title />
      </cc:Work>
    </rdf:RDF>
  </metadata>
  <g
     inkscape:label="Layer 1"
     inkscape:groupmode="layer"
     id="layer1"
     transform="translate(-94.584446,864.1257)">
    <text
       xml:space="preserve"
       style="font-style:normal;font-variant:normal;font-weight:bold;font-stretch:normal;font-size:40px;line-height:125%;font-family:Aharoni;-inkscape-font-specification:'Aharoni Bold';letter-spacing:0px;word-spacing:0px;fill:#000000;fill-opacity:1;stroke:none;stroke-width:1px;stroke-linecap:butt;stroke-linejoin:miter;stroke-opacity:1"
       x="1784.5239"
       y="-432.01419"
       id="text4153"
       sodipodi:linespacing="125%"><tspan
         sodipodi:role="line"
         id="tspan4155"
         x="1784.5239"
         y="-432.01419"
         style="font-style:normal;font-variant:normal;font-weight:bold;font-stretch:normal;font-size:625px;font-family:Aharoni;-inkscape-font-specification:'Aharoni Bold'" /></text>
    <g
       id="g4309"
       style="font-style:normal;font-weight:normal;font-size:40px;line-height:125%;font-family:sans-serif;letter-spacing:0px;word-spacing:0px;fill:#000000;fill-opacity:1;stroke:none;stroke-width:1px;stroke-linecap:butt;stroke-linejoin:miter;stroke-opacity:1"
       transform="translate(858.80958,-1187.2335)" />
    <g
       id="g4722"
       transform="matrix(9.1305756,0,0,9.1305756,-2934.1431,-5611.0404)"
       style="stroke:none;stroke-opacity:1">
      <path
         inkscape:connector-curvature="0"
         style="font-style:normal;font-variant:normal;font-weight:bold;font-stretch:normal;font-size:75px;line-height:125%;font-family:Aharoni;-inkscape-font-specification:'Aharoni Bold';letter-spacing:0px;word-spacing:0px;fill:#32d4c8;fill-opacity:1;stroke:#000000;stroke-width:0.20041919;stroke-linecap:butt;stroke-linejoin:miter;stroke-miterlimit:4;stroke-dasharray:none;stroke-opacity:1"
         d="m 378.81253,523.87312 c -2.07948,0 -4.09931,0.91301 -5.52877,2.4411 -4.1e-4,2e-4 -4.1e-4,4e-4 -6.1e-4,6e-4 -4e-4,4e-4 -10e-4,6e-4 -10e-4,10e-4 -0.67064,0.71641 -1.14701,1.56741 -1.45722,2.49558 -0.41147,-0.80573 -1.23934,-1.31333 -2.14406,-1.31459 l -3.98846,0 c -0.25934,6e-4 -0.51688,0.0431 -0.7627,0.12579 -0.22752,-0.73559 -0.61045,-1.43308 -1.14207,-1.95726 -0.8423,-0.83682 -2.10314,-1.3548 -3.2874,-1.3548 -1.18866,0 -2.45528,0.52012 -3.29842,1.36325 -0.84266,0.84268 -1.35018,2.10928 -1.35018,3.28542 0,0.93789 0.32998,1.91827 0.88132,2.71087 -0.30693,0.33337 -0.51371,0.74649 -0.59663,1.192 -0.12263,-0.12078 -0.21704,-0.26508 -0.34825,-0.37809 l -6e-4,-6e-4 c -1.45287,-1.25295 -3.32284,-1.95854 -5.2343,-1.95854 -0.37128,0 -0.73638,0.07 -1.10314,0.12317 l 0,-4.32699 c -4e-5,-1.33168 -1.07959,-2.4112 -2.41127,-2.41119 l -3.98845,0 c -0.68267,10e-4 -1.27444,0.0902 -1.73083,0.59789 l -0.0561,0.0541 -5.47728,4.27058 -0.0917,22.65258 69.16939,0.002 5.7218,-6.38505 0.0661,-0.0827 c 1.65278,-1.57879 2.45602,-3.74379 2.45602,-6.08857 0,-2.48574 -1.00223,-4.86089 -2.8432,-6.4464 l -6e-4,-6e-4 c -1.45287,-1.25295 -3.32283,-1.95853 -5.23429,-1.95853 -0.37128,0 -0.73638,0.07 -1.10315,0.12316 l 0,-4.32698 c -3e-5,-1.33165 -1.07954,-2.41116 -2.41119,-2.4112 l -3.98853,0 c -1.33165,4e-5 -2.41116,1.07955 -2.4112,2.4112 l 0,4.59483 c -0.11144,-0.0167 -0.22392,-0.0256 -0.3366,-0.0266 l -3.98846,0 c -0.29224,10e-4 -0.58187,0.055 -0.85477,0.15953 -0.85313,-0.31778 -1.74728,-0.52397 -2.65959,-0.52397 -1.66667,0 -3.28433,0.56321 -4.63894,1.53115 -0.0671,-0.11257 -0.1432,-0.21949 -0.22764,-0.31969 0.3718,-0.43528 0.57662,-0.98862 0.57781,-1.56106 l 0,-3.47741 c -6e-5,-0.93735 -0.54334,-1.78971 -1.393,-2.18555 -0.8663,-0.40348 -1.81747,-0.63946 -2.78155,-0.63946 z"
         id="path4724"
         sodipodi:nodetypes="ccsccccccsssccccsccsccccccccsccscccccccccsccccccc" />
      <g
         style="font-style:normal;font-variant:normal;font-weight:bold;font-stretch:normal;font-size:13.28189373px;line-height:125%;font-family:Aharoni;-inkscape-font-specification:'Aharoni Bold';letter-spacing:0px;word-spacing:0px;fill:#ffffff;fill-opacity:1;stroke:#000000;stroke-width:0.20041919px;stroke-linecap:butt;stroke-linejoin:miter;stroke-opacity:1"
         id="text4726">
        <path
           d="m 356.21945,538.93096 q 0,2.84542 -1.95775,4.57213 -1.64159,1.44704 -3.74526,1.44704 -1.30111,0 -2.32255,-0.57152 -0.62016,-0.34048 -1.15519,-1.04576 l 0,1.25248 -3.98846,0 0,-18.26423 3.98846,0 0,8.08636 q 0.64447,-0.6688 1.25247,-0.96064 1.05791,-0.51071 2.26175,-0.51071 2.06719,0 3.66014,1.37407 2.00639,1.72671 2.00639,4.62078 z m -4.14654,0.0122 q 0,-0.93632 -0.62016,-1.66592 -0.76607,-0.89983 -1.95775,-0.89983 -1.07007,0 -1.82399,0.75392 -0.75391,0.74175 -0.75391,1.81183 0,1.07007 0.75391,1.82399 0.75392,0.74175 1.82399,0.74175 1.20384,0 1.95775,-0.89983 0.62016,-0.74176 0.62016,-1.66591 z"
           style="font-style:normal;font-variant:normal;font-weight:bold;font-stretch:normal;font-size:24.9035511px;font-family:Aharoni;-inkscape-font-specification:'Aharoni Bold';fill:#ffffff;fill-opacity:1;stroke:#000000;stroke-width:0.20041919px;stroke-opacity:1"
           id="path4146" />
        <path
           d="m 362.74933,528.95981 q 0,0.94847 -0.65663,1.60511 -0.64448,0.64448 -1.59295,0.64448 -0.93632,0 -1.59296,-0.65664 -0.64447,-0.65664 -0.64447,-1.59295 0,-0.93632 0.64447,-1.58079 0.65664,-0.65664 1.59296,-0.65664 0.93631,0 1.59295,0.65664 0.65663,0.64447 0.65663,1.58079 z m -0.25535,15.62552 -3.98846,0 0,-11.28442 3.98846,0 0,11.28442 z"
           style="font-style:normal;font-variant:normal;font-weight:bold;font-stretch:normal;font-size:24.9035511px;font-family:Aharoni;-inkscape-font-specification:'Aharoni Bold';fill:#ffffff;fill-opacity:1;stroke:#000000;stroke-width:0.20041919px;stroke-opacity:1"
           id="path4148" />
        <path
           d="m 371.95441,536.58409 -2.27391,0 0,8.00124 -3.98846,0 0,-8.00124 -1.31327,0 0,-3.28318 1.31327,0 0,-3.39263 3.98846,0 0,3.39263 2.27391,0 0,3.28318 z"
           style="font-style:normal;font-variant:normal;font-weight:bold;font-stretch:normal;font-size:24.9035511px;font-family:Aharoni;-inkscape-font-specification:'Aharoni Bold';fill:#ffffff;fill-opacity:1;stroke:#000000;stroke-width:0.20041919px;stroke-opacity:1"
           id="path4150" />
        <path
           d="m 380.5758,536.58409 -2.80894,0 0,8.00124 -3.98846,0 0,-8.00124 -1.42272,0 0,-3.28318 1.42272,0 0,-1.49568 q 0,-2.49278 1.26463,-3.84254 1.56863,-1.67807 3.76958,-1.67807 0.87552,0 1.76319,0.41344 l 0,3.47774 q -0.81471,-0.44992 -1.39839,-0.44992 -0.81472,0 -1.19168,0.62016 -0.21887,0.35264 -0.21887,1.73887 l 0,1.216 2.80894,0 0,3.28318 z"
           style="font-style:normal;font-variant:normal;font-weight:bold;font-stretch:normal;font-size:24.9035511px;font-family:Aharoni;-inkscape-font-specification:'Aharoni Bold';fill:#ffffff;fill-opacity:1;stroke:#000000;stroke-width:0.20041919px;stroke-opacity:1"
           id="path4152" />
        <path
           d="m 394.77861,544.58533 -3.98846,0 0,-1.25248 q -0.57152,0.71744 -1.15519,1.04576 -1.02144,0.57152 -2.32255,0.57152 -2.10367,0 -3.74526,-1.44704 -1.95775,-1.72671 -1.95775,-4.57213 0,-2.89407 2.00639,-4.62078 1.59295,-1.37407 3.66014,-1.37407 1.20383,0 2.26175,0.51071 0.60799,0.29184 1.25247,0.96064 l 0,-1.10655 3.98846,0 0,11.28442 z m -3.86686,-5.64221 q 0,-1.07008 -0.75392,-1.81183 -0.75391,-0.75392 -1.82399,-0.75392 -1.19167,0 -1.95775,0.89983 -0.62015,0.7296 -0.62015,1.66592 0,0.93631 0.62015,1.66591 0.75392,0.89983 1.95775,0.89983 1.08224,0 1.82399,-0.74175 0.75392,-0.74176 0.75392,-1.82399 z"
           style="font-style:normal;font-variant:normal;font-weight:bold;font-stretch:normal;font-size:24.9035511px;font-family:Aharoni;-inkscape-font-specification:'Aharoni Bold';fill:#ffffff;fill-opacity:1;stroke:#000000;stroke-width:0.20041919px;stroke-opacity:1"
           id="path4154" />
        <path
           d="m 410.69597,538.93096 q 0,2.84542 -1.95775,4.57213 -1.6416,1.44704 -3.74526,1.44704 -1.30112,0 -2.32255,-0.57152 -0.62016,-0.34048 -1.1552,-1.04576 l 0,1.25248 -3.98846,0 0,-18.26423 3.98846,0 0,8.08636 q 0.64448,-0.6688 1.25248,-0.96064 1.05791,-0.51071 2.26174,-0.51071 2.06719,0 3.66015,1.37407 2.00639,1.72671 2.00639,4.62078 z m -4.14654,0.0122 q 0,-0.93632 -0.62016,-1.66592 -0.76608,-0.89983 -1.95775,-0.89983 -1.07007,0 -1.82399,0.75392 -0.75392,0.74175 -0.75392,1.81183 0,1.07007 0.75392,1.82399 0.75392,0.74175 1.82399,0.74175 1.20383,0 1.95775,-0.89983 0.62016,-0.74176 0.62016,-1.66591 z"
           style="font-style:normal;font-variant:normal;font-weight:bold;font-stretch:normal;font-size:24.9035511px;font-family:Aharoni;-inkscape-font-specification:'Aharoni Bold';fill:#ffffff;fill-opacity:1;stroke:#000000;stroke-width:0.20041919px;stroke-opacity:1"
           id="path4156" />
      </g>
    </g>
  </g>
</svg>
