<?xml version="1.0" encoding="UTF-8" standalone="no"?>
<!-- Created with Inkscape (http://www.inkscape.org/) -->

<svg
   xmlns:dc="http://purl.org/dc/elements/1.1/"
   xmlns:cc="http://creativecommons.org/ns#"
   xmlns:rdf="http://www.w3.org/1999/02/22-rdf-syntax-ns#"
   xmlns:svg="http://www.w3.org/2000/svg"
   xmlns="http://www.w3.org/2000/svg"
   xmlns:sodipodi="http://sodipodi.sourceforge.net/DTD/sodipodi-0.dtd"
   xmlns:inkscape="http://www.inkscape.org/namespaces/inkscape"
   width="5000"
   height="5000"
   viewBox="0 0 5000.0001 5000.0001"
   id="svg4304"
   version="1.1"
   inkscape:version="0.91 r13725"
   sodipodi:docname="square_5000x5000_with_background_with_text.svg">
  <defs
     id="defs4306">
    <inkscape:perspective
       id="perspective4531"
       inkscape:persp3d-origin="586.79025 : 415.71682 : 1"
       inkscape:vp_z="678.60575 : 541.75286 : 1"
       inkscape:vp_y="0 : 1000 : 0"
       inkscape:vp_x="165.66502 : 677.11331 : 1"
       sodipodi:type="inkscape:persp3d" />
  </defs>
  <sodipodi:namedview
     id="base"
     pagecolor="#ececec"
     bordercolor="#666666"
     borderopacity="1.0"
     inkscape:pageopacity="1"
     inkscape:pageshadow="2"
     inkscape:zoom="0.0549"
     inkscape:cx="1704.3681"
     inkscape:cy="1241.9209"
     inkscape:document-units="px"
     inkscape:current-layer="g5741"
     showgrid="false"
     units="px"
     inkscape:window-width="1280"
     inkscape:window-height="751"
     inkscape:window-x="0"
     inkscape:window-y="1"
     inkscape:window-maximized="1" />
  <metadata
     id="metadata4309">
    <rdf:RDF>
      <cc:Work
         rdf:about="">
        <dc:format>image/svg+xml</dc:format>
        <dc:type
           rdf:resource="http://purl.org/dc/dcmitype/StillImage" />
        <dc:title></dc:title>
      </cc:Work>
    </rdf:RDF>
  </metadata>
  <g
     inkscape:label="Layer 1"
     inkscape:groupmode="layer"
     id="layer1"
     transform="translate(0,3947.6378)">
    <text
       xml:space="preserve"
       style="font-style:normal;font-variant:normal;font-weight:bold;font-stretch:normal;font-size:40px;line-height:125%;font-family:Aharoni;-inkscape-font-specification:'Aharoni Bold';letter-spacing:0px;word-spacing:0px;fill:#000000;fill-opacity:1;stroke:none;stroke-width:1px;stroke-linecap:butt;stroke-linejoin:miter;stroke-opacity:1"
       x="2291.4148"
       y="-1715.9269"
       id="text4153"
       sodipodi:linespacing="125%"><tspan
         sodipodi:role="line"
         id="tspan4155"
         x="2291.4148"
         y="-1715.9269"
         style="font-style:normal;font-variant:normal;font-weight:bold;font-stretch:normal;font-size:625px;font-family:Aharoni;-inkscape-font-specification:'Aharoni Bold'" /></text>
    <g
       id="g4309"
       style="font-style:normal;font-weight:normal;font-size:40px;line-height:125%;font-family:sans-serif;letter-spacing:0px;word-spacing:0px;fill:#000000;fill-opacity:1;stroke:none;stroke-width:1px;stroke-linecap:butt;stroke-linejoin:miter;stroke-opacity:1"
       transform="translate(1365.7006,-2471.1462)" />
    <g
       id="g4610"
       transform="matrix(27.204712,0,0,27.204712,-6306.2629,-25116.012)">
      <g
         id="g5741"
         transform="matrix(0.80963299,0,0,0.80963299,61.637104,142.40585)">
        <g
           transform="matrix(1.6266877,0,0,1.6266877,-70.703438,138.77126)"
           style="font-style:normal;font-weight:normal;font-size:40px;line-height:125%;font-family:sans-serif;letter-spacing:0px;word-spacing:0px;fill:#32d4c8;fill-opacity:1;stroke:none;stroke-width:1px;stroke-linecap:butt;stroke-linejoin:miter;stroke-opacity:1"
           id="g4592">
          <path
             id="path4594"
             transform="matrix(0.02259705,0,0,0.02259705,185.96758,393.03364)"
             d="m 3926.3457,722.47266 c -284.2345,0 -562.4472,125.66295 -757.4961,334.32034 -159.8213,170.7546 -235.388,397.1033 -254.2851,635.6269 a 349.17523,349.17523 0 0 0 -138.4649,119.7969 c -183.3213,-128.3115 -401.8574,-203.2906 -625.9473,-203.291 -40.0897,0 -79.45,8.6727 -119.2773,13.2246 l 0,-545.7363 A 349.17523,349.17523 0 0 0 1681.7734,727.3125 l -531.5605,0 a 349.17523,349.17523 0 0 0 -21.6035,1.08594 l 0.033,-0.29883 -271.99416,-1.29102 -367.01953,342.30081 -0.98243,3194.7226 3021.14842,-1.2949 498.1641,-482.0957 a 349.17523,349.17523 0 0 0 39.4883,-38.2148 l 3.08,-2.9805 -0.4394,-0.027 a 349.17523,349.17523 0 0 0 85.9433,-228.6856 l 0,-717.2187 25.2383,0 a 349.17523,349.17523 0 0 0 349.1016,-349.1016 l 0,-437.6094 a 349.17523,349.17523 0 0 0 -69.4043,-208.2168 349.17523,349.17523 0 0 0 69.4043,-208.2168 l 0,-463.539 A 349.17523,349.17523 0 0 0 4308.6387,810.11523 c -118.7231,-55.29527 -249.6761,-87.64302 -382.293,-87.64257 z M 1697.5898,1711.2617 c -0.1332,0.064 -0.2125,0.1961 -0.3457,0.2598 -0.1066,0.052 -0.2371,0.036 -0.3437,0.088 l 0.6894,-0.3477 z m 311.504,1040.2188 c 6.7397,0 7.1869,1.699 5.166,3.5605 0.2231,0.5082 0.3672,1.5999 0.3672,3.5274 0,2.8012 -0.483,3.8143 -1.1504,3.7754 1.8927,1.7459 1.6192,3.3984 -4.3828,3.3984 -8.5321,0 -1.5715,-0.5048 2.5078,-1.1231 -0.3106,-0.6621 -0.258,-2.084 -0.014,-3.6484 -1.3924,-0.8403 -3.0702,-1.5751 -4.6406,-2.0664 -0.4639,0.1559 -0.9251,0.3115 -1.3653,0.4297 1.6793,3.2888 3.1134,8.9137 -1.5879,3.3828 l 0.1739,0.2598 c -1.2274,-1.4417 -1.8123,-2.4878 -1.9453,-3.2246 -1.3248,-0.1968 -1.6062,-1.1681 0.2168,-3.3438 l -0.2598,0.2578 c 1.2412,-1.4845 2.1571,-2.4348 2.8437,-3.0293 -1.186,-1.1029 -0.7197,-2.1562 4.0704,-2.1562 z m -4.0704,2.1562 c 0.355,0.3301 0.8558,0.6625 1.4375,0.9746 0.4575,-1.5271 0.3003,-2.4792 -1.4375,-0.9746 z m 1.4375,0.9746 c -0.3381,1.1289 -0.9919,2.5288 -1.6054,3.4961 0.07,0.1001 0.1389,0.1974 0.2109,0.3125 0.5798,0.097 1.2236,0.2788 1.8809,0.4844 1.1007,-0.3699 2.2285,-0.8155 3.3047,-1.334 -0.2146,-0.5891 -0.4013,-1.1686 -0.5313,-1.7148 -1.0856,-0.2697 -2.2758,-0.7162 -3.2598,-1.2442 z m 3.2598,1.2442 c 2.236,0.5554 3.9475,0.2949 2.1523,-1.9336 -2.3584,-1.9357 -2.6991,-0.3644 -2.1523,1.9336 z m 2.1523,-1.9336 c 0.3098,0.2542 0.6414,0.5475 1.0235,0.9297 l -1.9863,-1.9883 c 0.4046,0.3982 0.7082,0.7425 0.9628,1.0586 z m -1.621,3.6484 c 0.3897,1.07 0.8811,2.1272 1.4082,2.9883 0.2825,-1.6171 0.7456,-3.3059 1.2304,-4.4629 -0.7727,0.5128 -1.6794,1.0125 -2.6386,1.4746 z m 2.6386,-1.4746 c 0.5282,-0.3505 0.9901,-0.7055 1.3692,-1.0547 -0.3373,-0.7679 -0.8595,-0.1618 -1.3692,1.0547 z m -1.2304,4.4629 c -0.024,0.1375 -0.051,0.2763 -0.072,0.4121 0.225,0.1358 0.4414,0.2731 0.6484,0.4121 -0.1933,-0.2448 -0.3845,-0.511 -0.5761,-0.8242 z m 0.5761,0.8242 c 0.4379,0.5545 0.8677,0.9392 1.2403,0.961 -0.348,-0.321 -0.7672,-0.6433 -1.2403,-0.961 z m -7.1699,-2.9629 c -0.1293,-0.022 -0.2515,-0.035 -0.375,-0.051 -0.6119,0.8954 -1.1289,1.2393 -1.1289,0.1993 0,-0.091 0.01,-0.1582 0.012,-0.2383 -0.9597,0.076 -1.5178,0.5009 -1.3515,1.4219 0.8088,0.1201 2.0096,-0.055 3.3593,-0.418 -0.172,-0.337 -0.3447,-0.6409 -0.5156,-0.9141 z m -1.4922,-0.09 c 0.3302,-0.026 0.7053,-0.012 1.1172,0.039 0.054,-0.078 0.1093,-0.1753 0.1641,-0.2617 -0.6633,-0.9463 -1.2228,-1.1847 -1.2813,0.2227 z"
             style="font-style:normal;font-variant:normal;font-weight:bold;font-stretch:normal;font-size:75px;font-family:Aharoni;-inkscape-font-specification:'Aharoni Bold';fill:#32d4c8;fill-opacity:1"
             inkscape:connector-curvature="0" />
        </g>
        <text
           sodipodi:linespacing="125%"
           id="text4596"
           y="907.15698"
           x="267.41519"
           style="font-style:normal;font-variant:normal;font-weight:bold;font-stretch:normal;font-size:65.06750488px;line-height:125%;font-family:Aharoni;-inkscape-font-specification:'Aharoni Bold';letter-spacing:0px;word-spacing:0px;fill:#ffffff;fill-opacity:1;stroke:none;stroke-width:1px;stroke-linecap:butt;stroke-linejoin:miter;stroke-opacity:1"
           xml:space="preserve"><tspan
             style="font-style:normal;font-variant:normal;font-weight:bold;font-stretch:normal;font-size:122.00157928px;font-family:Aharoni;-inkscape-font-specification:'Aharoni Bold';fill:#ffffff"
             y="907.15698"
             x="267.41519"
             id="tspan4598"
             sodipodi:role="line">bf</tspan></text>
      </g>
      <text
         xml:space="preserve"
         style="font-style:normal;font-weight:normal;font-size:1.47033358px;line-height:125%;font-family:sans-serif;letter-spacing:0px;word-spacing:0px;fill:#000000;fill-opacity:1;stroke:none;stroke-width:1px;stroke-linecap:butt;stroke-linejoin:miter;stroke-opacity:1"
         x="265.95483"
         y="919.64056"
         id="text5761"
         sodipodi:linespacing="125%"><tspan
           sodipodi:role="line"
           id="tspan5763"
           x="265.95483"
           y="919.64056" /></text>
      <text
         xml:space="preserve"
         style="font-style:normal;font-weight:normal;font-size:36.4414978px;line-height:125%;font-family:sans-serif;letter-spacing:0px;word-spacing:0px;fill:#4d4d4d;fill-opacity:1;stroke:none;stroke-width:1px;stroke-linecap:butt;stroke-linejoin:miter;stroke-opacity:1;"
         x="251.95938"
         y="941.67297"
         id="text6349"
         sodipodi:linespacing="125%"><tspan
           sodipodi:role="line"
           id="tspan6351"
           x="251.95938"
           y="941.67297"
           style="font-style:normal;font-variant:normal;font-weight:bold;font-stretch:normal;font-family:Aharoni;-inkscape-font-specification:'Aharoni Bold';fill:#4d4d4d;">bitfab.io</tspan></text>
    </g>
  </g>
</svg>
