<?xml version="1.0" encoding="UTF-8" standalone="no"?>
<!-- Created with Inkscape (http://www.inkscape.org/) -->

<svg
   xmlns:dc="http://purl.org/dc/elements/1.1/"
   xmlns:cc="http://creativecommons.org/ns#"
   xmlns:rdf="http://www.w3.org/1999/02/22-rdf-syntax-ns#"
   xmlns:svg="http://www.w3.org/2000/svg"
   xmlns="http://www.w3.org/2000/svg"
   xmlns:sodipodi="http://sodipodi.sourceforge.net/DTD/sodipodi-0.dtd"
   xmlns:inkscape="http://www.inkscape.org/namespaces/inkscape"
   width="4000"
   height="2000"
   viewBox="0 0 4000 2000"
   id="svg6412"
   version="1.1"
   inkscape:version="0.91 r13725"
   sodipodi:docname="rectangle_4000x1000_with_background.svg">
  <defs
     id="defs6414">
    <inkscape:perspective
       id="perspective4531"
       inkscape:persp3d-origin="586.79025 : 415.71682 : 1"
       inkscape:vp_z="678.60575 : 541.75286 : 1"
       inkscape:vp_y="0 : 1000 : 0"
       inkscape:vp_x="165.66502 : 677.11331 : 1"
       sodipodi:type="inkscape:persp3d" />
  </defs>
  <sodipodi:namedview
     id="base"
     pagecolor="#ececec"
     bordercolor="#666666"
     borderopacity="1.0"
     inkscape:pageopacity="1"
     inkscape:pageshadow="2"
     inkscape:zoom="0.12374369"
     inkscape:cx="1023.7817"
     inkscape:cy="899.75614"
     inkscape:document-units="px"
     inkscape:current-layer="g4722"
     showgrid="false"
     units="px"
     inkscape:window-width="1280"
     inkscape:window-height="751"
     inkscape:window-x="0"
     inkscape:window-y="1"
     inkscape:window-maximized="1" />
  <metadata
     id="metadata6417">
    <rdf:RDF>
      <cc:Work
         rdf:about="">
        <dc:format>image/svg+xml</dc:format>
        <dc:type
           rdf:resource="http://purl.org/dc/dcmitype/StillImage" />
        <dc:title></dc:title>
      </cc:Work>
    </rdf:RDF>
  </metadata>
  <g
     inkscape:label="Layer 1"
     inkscape:groupmode="layer"
     id="layer1"
     transform="translate(0,947.63782)">
    <text
       xml:space="preserve"
       style="font-style:normal;font-variant:normal;font-weight:bold;font-stretch:normal;font-size:40px;line-height:125%;font-family:Aharoni;-inkscape-font-specification:'Aharoni Bold';letter-spacing:0px;word-spacing:0px;fill:#000000;fill-opacity:1;stroke:none;stroke-width:1px;stroke-linecap:butt;stroke-linejoin:miter;stroke-opacity:1"
       x="1784.5239"
       y="-432.01419"
       id="text4153"
       sodipodi:linespacing="125%"><tspan
         sodipodi:role="line"
         id="tspan4155"
         x="1784.5239"
         y="-432.01419"
         style="font-style:normal;font-variant:normal;font-weight:bold;font-stretch:normal;font-size:625px;font-family:Aharoni;-inkscape-font-specification:'Aharoni Bold'" /></text>
    <g
       id="g4309"
       style="font-style:normal;font-weight:normal;font-size:40px;line-height:125%;font-family:sans-serif;letter-spacing:0px;word-spacing:0px;fill:#000000;fill-opacity:1;stroke:none;stroke-width:1px;stroke-linecap:butt;stroke-linejoin:miter;stroke-opacity:1"
       transform="translate(858.80958,-1187.2335)" />
    <g
       id="g4722"
       transform="matrix(9.1305756,0,0,9.1305756,-2934.1431,-5611.0404)"
       style="stroke:none;stroke-opacity:1">
      <g
         id="g7731"
         transform="matrix(1.6567642,0,0,1.6567642,-214.20966,-494.72526)">
        <path
           sodipodi:nodetypes="ccsccccccsssccccsccsccccccccsccscccccccccsccccccc"
           id="path4724"
           d="m 469.49221,631.41345 c -6.26262,0 -12.34556,2.74963 -16.65057,7.35167 -10e-4,6.6e-4 -10e-4,10e-4 -0.002,0.002 -10e-4,10e-4 -0.003,0.002 -0.004,0.004 -2.01971,2.15757 -3.45436,4.72044 -4.38858,7.51574 -1.2392,-2.42654 -3.73245,-3.95523 -6.4571,-3.95905 l -12.01172,0 c -0.78104,0.002 -1.55666,0.12985 -2.29696,0.37883 -0.68522,-2.21529 -1.83844,-4.31588 -3.43947,-5.89451 -2.5367,-2.52017 -6.33387,-4.08013 -9.90041,-4.08013 -3.57979,0 -7.39437,1.56638 -9.93357,4.10559 -2.5378,2.53781 -4.06623,6.35234 -4.06623,9.89442 0,2.82456 0.99375,5.7771 2.6542,8.1641 -0.92437,1.004 -1.54712,2.24816 -1.79685,3.58985 -0.3693,-0.36374 -0.65363,-0.79832 -1.04879,-1.13865 l -0.002,-0.002 c -4.37548,-3.77342 -10.0071,-5.89837 -15.76369,-5.89837 -1.11817,0 -2.2177,0.2107 -3.32224,0.37092 l 0,-13.03121 c -1.2e-4,-4.01052 -3.25132,-7.26162 -7.26184,-7.26161 l -12.0117,0 c -2.05594,0.003 -3.8381,0.2717 -5.2126,1.80064 l -0.16902,0.16284 -16.49549,12.86136 -0.27615,68.22095 208.31183,0.005 17.23186,-19.22936 0.19899,-0.24914 c 4.97755,-4.75471 7.39659,-11.27487 7.39659,-18.33646 0,-7.48609 -3.01833,-14.63916 -8.56262,-19.41408 l -0.002,-0.002 c -4.37549,-3.77342 -10.0071,-5.89837 -15.7637,-5.89837 -1.11816,0 -2.21769,0.2107 -3.32225,0.37092 l 0,-13.0312 c -1.1e-4,-4.01043 -3.25118,-7.2615 -7.26161,-7.26162 l -12.01192,0 c -4.01044,1.1e-4 -7.26151,3.25118 -7.26162,7.26162 l 0,13.83786 c -0.33562,-0.0503 -0.67436,-0.0771 -1.01372,-0.08 l -12.01171,0 c -0.88011,0.003 -1.75237,0.16562 -2.57425,0.48044 -2.56929,-0.95705 -5.26212,-1.57801 -8.00966,-1.57801 -5.01936,0 -9.89115,1.69618 -13.97071,4.61126 -0.20198,-0.33903 -0.43126,-0.66103 -0.68557,-0.96281 1.11972,-1.31087 1.73655,-2.97734 1.74015,-4.70132 l 0,-10.47262 c -2e-4,-2.82293 -1.63633,-5.38993 -4.1952,-6.58203 -2.60896,-1.21513 -5.47351,-1.92583 -8.37695,-1.92583 z"
           style="font-style:normal;font-variant:normal;font-weight:bold;font-stretch:normal;font-size:75px;line-height:125%;font-family:Aharoni;-inkscape-font-specification:'Aharoni Bold';letter-spacing:0px;word-spacing:0px;fill:#32d4c8;fill-opacity:1;stroke:none;stroke-width:1;stroke-linecap:butt;stroke-linejoin:miter;stroke-miterlimit:4;stroke-dasharray:none;stroke-opacity:1"
           inkscape:connector-curvature="0" />
        <text
           sodipodi:linespacing="125%"
           id="text4726"
           y="693.79071"
           x="357.68826"
           style="font-style:normal;font-variant:normal;font-weight:bold;font-stretch:normal;font-size:40px;line-height:125%;font-family:Aharoni;-inkscape-font-specification:'Aharoni Bold';letter-spacing:0px;word-spacing:0px;fill:#ffffff;fill-opacity:1;stroke:none;stroke-width:1px;stroke-linecap:butt;stroke-linejoin:miter;stroke-opacity:1"
           xml:space="preserve"><tspan
             style="font-style:normal;font-variant:normal;font-weight:bold;font-stretch:normal;font-size:75px;font-family:Aharoni;-inkscape-font-specification:'Aharoni Bold';fill:#ffffff;fill-opacity:1;stroke:none;stroke-opacity:1"
             y="693.79071"
             x="357.68826"
             id="tspan4728"
             sodipodi:role="line">bitfab</tspan></text>
      </g>
    </g>
  </g>
</svg>
